<mxfile host="app.diagrams.net" agent="Mozilla/5.0 (Windows NT 10.0; Win64; x64) AppleWebKit/537.36 (KHTML, like Gecko) Chrome/136.0.0.0 Safari/537.36" version="27.1.3">
  <diagram id="kgpKYQtTHZ0yAKxKKP6v" name="Page-1">
    <mxGraphModel dx="1426" dy="863" grid="1" gridSize="10" guides="1" tooltips="1" connect="1" arrows="1" fold="1" page="1" pageScale="1" pageWidth="850" pageHeight="1100" math="0" shadow="0">
      <root>
        <mxCell id="0" />
        <mxCell id="1" parent="0" />
        <mxCell id="0W0XDRW_tP-_jsXK928k-3" value="" style="edgeStyle=orthogonalEdgeStyle;rounded=0;orthogonalLoop=1;jettySize=auto;html=1;" edge="1" parent="1" source="0W0XDRW_tP-_jsXK928k-1" target="0W0XDRW_tP-_jsXK928k-2">
          <mxGeometry relative="1" as="geometry" />
        </mxCell>
        <mxCell id="0W0XDRW_tP-_jsXK928k-1" value="详细设计" style="rounded=0;whiteSpace=wrap;html=1;" vertex="1" parent="1">
          <mxGeometry x="240" y="120" width="120" height="60" as="geometry" />
        </mxCell>
        <mxCell id="0W0XDRW_tP-_jsXK928k-8" value="" style="edgeStyle=orthogonalEdgeStyle;rounded=0;orthogonalLoop=1;jettySize=auto;html=1;" edge="1" parent="1" source="0W0XDRW_tP-_jsXK928k-2" target="0W0XDRW_tP-_jsXK928k-7">
          <mxGeometry relative="1" as="geometry" />
        </mxCell>
        <mxCell id="0W0XDRW_tP-_jsXK928k-2" value="构建EBOM" style="rounded=0;whiteSpace=wrap;html=1;" vertex="1" parent="1">
          <mxGeometry x="440" y="120" width="120" height="60" as="geometry" />
        </mxCell>
        <mxCell id="0W0XDRW_tP-_jsXK928k-4" value="CAD建模&lt;br&gt;图纸绘制&lt;br&gt;材料选择&lt;br&gt;结构设计（仿真验证）&lt;div&gt;&lt;br&gt;&lt;/div&gt;" style="text;html=1;align=center;verticalAlign=middle;whiteSpace=wrap;rounded=0;" vertex="1" parent="1">
          <mxGeometry x="220" y="210" width="160" height="30" as="geometry" />
        </mxCell>
        <mxCell id="0W0XDRW_tP-_jsXK928k-6" style="edgeStyle=orthogonalEdgeStyle;rounded=0;orthogonalLoop=1;jettySize=auto;html=1;" edge="1" parent="1" source="0W0XDRW_tP-_jsXK928k-5" target="0W0XDRW_tP-_jsXK928k-1">
          <mxGeometry relative="1" as="geometry" />
        </mxCell>
        <mxCell id="0W0XDRW_tP-_jsXK928k-5" value="概念设计和市场调研" style="rounded=0;whiteSpace=wrap;html=1;" vertex="1" parent="1">
          <mxGeometry x="60" y="120" width="120" height="60" as="geometry" />
        </mxCell>
        <mxCell id="0W0XDRW_tP-_jsXK928k-14" value="" style="edgeStyle=orthogonalEdgeStyle;rounded=0;orthogonalLoop=1;jettySize=auto;html=1;" edge="1" parent="1" source="0W0XDRW_tP-_jsXK928k-7" target="0W0XDRW_tP-_jsXK928k-13">
          <mxGeometry relative="1" as="geometry" />
        </mxCell>
        <mxCell id="0W0XDRW_tP-_jsXK928k-7" value="EBOM转化PBOM&lt;br&gt;PBOM设计" style="whiteSpace=wrap;html=1;rounded=0;" vertex="1" parent="1">
          <mxGeometry x="640" y="120" width="120" height="60" as="geometry" />
        </mxCell>
        <mxCell id="0W0XDRW_tP-_jsXK928k-9" value="CAD生成初始EBOM&lt;br&gt;（零件编号、名称、数量、层级关系）&lt;br&gt;版本控制与变更管理&lt;br&gt;审核（工艺、采购确定可用性）&lt;br&gt;&lt;div&gt;&lt;br&gt;&lt;/div&gt;" style="text;html=1;align=center;verticalAlign=middle;whiteSpace=wrap;rounded=0;" vertex="1" parent="1">
          <mxGeometry x="385" y="210" width="230" height="30" as="geometry" />
        </mxCell>
        <mxCell id="0W0XDRW_tP-_jsXK928k-10" value="工艺路线设计和工艺参数补充&lt;br&gt;BOM结构调整&lt;br&gt;&lt;div&gt;&lt;br&gt;&lt;/div&gt;" style="text;html=1;align=center;verticalAlign=middle;whiteSpace=wrap;rounded=0;" vertex="1" parent="1">
          <mxGeometry x="620" y="210" width="160" height="30" as="geometry" />
        </mxCell>
        <mxCell id="0W0XDRW_tP-_jsXK928k-16" value="" style="edgeStyle=orthogonalEdgeStyle;rounded=0;orthogonalLoop=1;jettySize=auto;html=1;" edge="1" parent="1" source="0W0XDRW_tP-_jsXK928k-13" target="0W0XDRW_tP-_jsXK928k-15">
          <mxGeometry relative="1" as="geometry" />
        </mxCell>
        <mxCell id="0W0XDRW_tP-_jsXK928k-13" value="工艺路线、工艺&lt;br&gt;作业指导书" style="whiteSpace=wrap;html=1;rounded=0;" vertex="1" parent="1">
          <mxGeometry x="840" y="120" width="120" height="60" as="geometry" />
        </mxCell>
        <mxCell id="0W0XDRW_tP-_jsXK928k-15" value="小批量试制" style="whiteSpace=wrap;html=1;rounded=0;" vertex="1" parent="1">
          <mxGeometry x="1040" y="120" width="120" height="60" as="geometry" />
        </mxCell>
      </root>
    </mxGraphModel>
  </diagram>
</mxfile>
